{"asset": {"version": "2.0", "generator": "Hill Country Estate \u2014 Dimensional Schedule v2"}, "scene": 0, "scenes": [{"nodes": [0, 1, 2, 3, 4, 5, 6, 7, 8, 9, 10, 11, 12, 13, 14, 15, 16, 17, 18, 19, 20, 21, 22, 23, 24, 25, 26, 27, 28, 29, 30, 31, 32, 33, 34, 35, 36, 37, 38, 39, 40, 41, 42, 43, 44, 45, 46, 47, 48, 49, 50, 51, 52]}], "nodes": [{"name": "drawing_room_sw", "translation": [8.0, 6.0, -10.0], "scale": [16, 12, 20], "mesh": 0, "extras": {"building": "Main Block", "floor": "ground", "tag": "D", "render": "locked", "area": 320}}, {"name": "great_room_se", "translation": [36.0, 6.0, -10.0], "scale": [16, 12, 20], "mesh": 0, "extras": {"building": "Main Block", "floor": "ground", "tag": "D", "render": "locked", "area": 320}}, {"name": "oval_dining_nw", "translation": [8.0, 6.0, -29.0], "scale": [16, 12, 18], "mesh": 0, "extras": {"building": "Main Block", "floor": "ground", "tag": "D", "render": "locked", "area": 288}}, {"name": "library_ne", "translation": [36.0, 6.0, -29.0], "scale": [16, 12, 18], "mesh": 0, "extras": {"building": "Main Block", "floor": "ground", "tag": "D", "render": "locked", "area": 288}}, {"name": "entry_hall_front_s_ctr", "translation": [22.0, 6.0, -6.0], "scale": [12, 12, 12], "mesh": 0, "extras": {"building": "Main Block", "floor": "ground", "tag": "L", "render": "locked", "area": 144}}, {"name": "octagonal_stair_hall", "translation": [22.0, 12.0, -16.0], "scale": [12, 24, 8], "mesh": 2, "extras": {"building": "Main Block", "floor": "ground", "tag": "L", "render": "container", "area": 96}}, {"name": "everyday_dining_n_ctr", "translation": [22.0, 6.0, -29.0], "scale": [12, 12, 18], "mesh": 2, "extras": {"building": "Main Block", "floor": "ground", "tag": "D", "render": "container", "area": 216}}, {"name": "powder_room", "translation": [18.5, 6.0, -23.0], "scale": [5, 12, 6], "mesh": 0, "extras": {"building": "Main Block", "floor": "ground", "tag": "L", "render": "locked", "area": 30}}, {"name": "front_porch", "translation": [22.0, 6.0, 6.0], "scale": [28, 12, 12], "mesh": 0, "extras": {"building": "Main Block", "floor": "ground", "tag": "L", "render": "locked", "area": 336}}, {"name": "study_sw_over_drawing", "translation": [8.0, 17.0, -10.0], "scale": [16, 10, 20], "mesh": 0, "extras": {"building": "Main Block", "floor": "upper", "tag": "L", "render": "locked", "area": 320}}, {"name": "rafa_s_texas_room_se_over_great", "translation": [36.0, 17.0, -10.0], "scale": [16, 10, 20], "mesh": 2, "extras": {"building": "Main Block", "floor": "upper", "tag": "L", "render": "container", "area": 320}}, {"name": "aurelia_s_provincetown_suite_nw_over_oval", "translation": [8.0, 17.0, -29.0], "scale": [16, 10, 18], "mesh": 2, "extras": {"building": "Main Block", "floor": "upper", "tag": "L", "render": "container", "area": 288}}, {"name": "primary_bedroom_ne_over_library", "translation": [36.0, 17.0, -29.0], "scale": [16, 10, 18], "mesh": 0, "extras": {"building": "Main Block", "floor": "upper", "tag": "L", "render": "locked", "area": 288}}, {"name": "quiet_room_s_ctr", "translation": [22.0, 17.0, -6.0], "scale": [12, 10, 12], "mesh": 0, "extras": {"building": "Main Block", "floor": "upper", "tag": "L", "render": "locked", "area": 144}}, {"name": "upper_gallery_landing", "translation": [22.0, 17.0, -24.0], "scale": [12, 10, 8], "mesh": 1, "extras": {"building": "Main Block", "floor": "upper", "tag": "~", "render": "provisional", "area": 96}}, {"name": "primary_dressing", "translation": [19.0, 17.0, -33.0], "scale": [6, 10, 10], "mesh": 1, "extras": {"building": "Main Block", "floor": "upper", "tag": "~", "render": "provisional", "area": 60}}, {"name": "primary_en_suite_teal", "translation": [25.0, 17.0, -33.0], "scale": [6, 10, 10], "mesh": 1, "extras": {"building": "Main Block", "floor": "upper", "tag": "~", "render": "provisional", "area": 60}}, {"name": "pink_en_suite_aurelia", "translation": [3.5, 17.0, -24.0], "scale": [7, 10, 8], "mesh": 1, "extras": {"building": "Main Block", "floor": "upper", "tag": "~", "render": "provisional", "area": 56}}, {"name": "rafa_en_suite", "translation": [32.0, 17.0, -3.5], "scale": [8, 10, 7], "mesh": 1, "extras": {"building": "Main Block", "floor": "upper", "tag": "~", "render": "provisional", "area": 56}}, {"name": "primary_terrace", "translation": [49.0, 12.2, -26.0], "scale": [10, 0.4, 12], "mesh": 1, "extras": {"building": "Main Block", "floor": "site", "tag": "~", "render": "provisional", "area": 120}}, {"name": "dome_oculus", "translation": [22.0, 27.0, -16.0], "scale": [8, 6, 8], "mesh": 1, "extras": {"building": "Main Block", "floor": "crown", "tag": "A", "render": "provisional", "area": 64}}, {"name": "orangery", "translation": [22.0, 7.0, -48.0], "scale": [24, 14, 18], "mesh": 16, "extras": {"building": "Orangery", "floor": "ground", "tag": "A", "render": "provisional", "area": 432}}, {"name": "covered_walkway", "translation": [-6.0, 5.5, -13.0], "scale": [12, 11, 14], "mesh": 19, "extras": {"building": "Covered Walkway", "floor": "ground", "tag": "~", "render": "provisional", "area": 168}}, {"name": "kitchen", "translation": [-46.5, 7.0, -10.0], "scale": [23, 14, 20], "mesh": 4, "extras": {"building": "Service Wing", "floor": "ground", "tag": "A", "render": "provisional", "area": 460}}, {"name": "pantry_wine_room", "translation": [-50.5, 6.0, -27.5], "scale": [15, 12, 15], "mesh": 4, "extras": {"building": "Service Wing", "floor": "ground", "tag": "A", "render": "provisional", "area": 225}}, {"name": "scullery", "translation": [-30.5, 6.0, -26.0], "scale": [9, 12, 12], "mesh": 3, "extras": {"building": "Service Wing", "floor": "ground", "tag": "L", "render": "locked", "area": 108}}, {"name": "mudroom", "translation": [-28.0, 6.0, -5.0], "scale": [14, 12, 10], "mesh": 4, "extras": {"building": "Service Wing", "floor": "ground", "tag": "A", "render": "provisional", "area": 140}}, {"name": "mechanical_laundry", "translation": [-19.0, 6.0, -27.0], "scale": [14, 12, 14], "mesh": 4, "extras": {"building": "Service Wing", "floor": "ground", "tag": "~", "render": "provisional", "area": 196}}, {"name": "tea_station", "translation": [-18.0, 6.0, -12.0], "scale": [6, 12, 8], "mesh": 4, "extras": {"building": "Service Wing", "floor": "ground", "tag": "~", "render": "provisional", "area": 48}}, {"name": "glass_bridge", "translation": [62.0, 5.5, -12.0], "scale": [12, 11, 8], "mesh": 6, "extras": {"building": "Wharf Wing", "floor": "ground", "tag": "L", "render": "locked", "area": 96}}, {"name": "right_passage_freddy_s_gallery", "translation": [50.0, 6.0, -10.0], "scale": [12, 12, 20], "mesh": 7, "extras": {"building": "Wharf Wing", "floor": "ground", "tag": "A", "render": "provisional", "area": 240}}, {"name": "sunroom", "translation": [82.0, 8.0, -4.0], "scale": [28, 16, 24], "mesh": 7, "extras": {"building": "Wharf Wing", "floor": "ground", "tag": "A", "render": "provisional", "area": 672}}, {"name": "guest_bedroom", "translation": [76.0, 5.5, -25.5], "scale": [16, 11, 11], "mesh": 7, "extras": {"building": "Wharf Wing", "floor": "ground", "tag": "A", "render": "provisional", "area": 176}}, {"name": "guest_sitting", "translation": [89.0, 5.5, -25.5], "scale": [10, 11, 11], "mesh": 7, "extras": {"building": "Wharf Wing", "floor": "ground", "tag": "~", "render": "provisional", "area": 110}}, {"name": "guest_en_suite", "translation": [72.0, 5.5, -35.0], "scale": [8, 11, 8], "mesh": 7, "extras": {"building": "Wharf Wing", "floor": "ground", "tag": "~", "render": "provisional", "area": 64}}, {"name": "pool_bath", "translation": [100.0, 5.5, 4.0], "scale": [8, 11, 8], "mesh": 7, "extras": {"building": "Wharf Wing", "floor": "ground", "tag": "A", "render": "provisional", "area": 64}}, {"name": "sauna", "translation": [100.0, 4.5, 13.0], "scale": [8, 9, 10], "mesh": 7, "extras": {"building": "Wharf Wing", "floor": "ground", "tag": "~", "render": "provisional", "area": 80}}, {"name": "cornelia_s_greenhouse", "translation": [-122.5, 6.0, -156.0], "scale": [15, 12, 12], "mesh": 10, "extras": {"building": "Motor Barn", "floor": "ground", "tag": "~", "render": "provisional", "area": 180}}, {"name": "vehicle_bay_1", "translation": [-108.0, 7.0, -162.0], "scale": [14, 14, 24], "mesh": 10, "extras": {"building": "Motor Barn", "floor": "ground", "tag": "~", "render": "provisional", "area": 336}}, {"name": "vehicle_bay_2", "translation": [-94.0, 7.0, -162.0], "scale": [14, 14, 24], "mesh": 10, "extras": {"building": "Motor Barn", "floor": "ground", "tag": "~", "render": "provisional", "area": 336}}, {"name": "vehicle_bay_3", "translation": [-80.0, 7.0, -162.0], "scale": [14, 14, 24], "mesh": 10, "extras": {"building": "Motor Barn", "floor": "ground", "tag": "~", "render": "provisional", "area": 336}}, {"name": "energy_forge", "translation": [-62.0, 7.0, -162.0], "scale": [22, 14, 24], "mesh": 10, "extras": {"building": "Motor Barn", "floor": "ground", "tag": "~", "render": "provisional", "area": 528}}, {"name": "airlock", "translation": [-48.5, 6.0, -155.0], "scale": [5, 12, 10], "mesh": 10, "extras": {"building": "Motor Barn", "floor": "ground", "tag": "A", "render": "provisional", "area": 50}}, {"name": "compute_room", "translation": [-38.5, 6.0, -157.0], "scale": [15, 12, 14], "mesh": 10, "extras": {"building": "Motor Barn", "floor": "ground", "tag": "A", "render": "provisional", "area": 210}}, {"name": "research_room", "translation": [-37.0, 6.0, -171.0], "scale": [18, 12, 14], "mesh": 10, "extras": {"building": "Motor Barn", "floor": "ground", "tag": "A", "render": "provisional", "area": 252}}, {"name": "instrument_bay_upgrade", "translation": [-20.0, 6.0, -157.0], "scale": [16, 12, 14], "mesh": 10, "extras": {"building": "Motor Barn", "floor": "ground", "tag": "~", "render": "provisional", "area": 224}}, {"name": "loft", "translation": [-64.0, 19.0, -162.0], "scale": [18, 10, 24], "mesh": 11, "extras": {"building": "Motor Barn", "floor": "loft", "tag": "L", "render": "container", "area": 432}}, {"name": "podcast_studio", "translation": [-59.0, 19.0, -168.0], "scale": [8, 10, 12], "mesh": 9, "extras": {"building": "Motor Barn", "floor": "loft", "tag": "L", "render": "locked", "area": 96}}, {"name": "observatory_tower", "translation": [156.5, 11.0, 263.5], "scale": [13, 22, 13], "mesh": 13, "extras": {"building": "Observatory", "floor": "ground", "tag": "A", "render": "provisional", "area": 169}}, {"name": "cedar_pavilion", "translation": [-48.0, 7.0, 18.0], "scale": [20, 14, 24], "mesh": 21, "extras": {"building": "Cedar Pavilion", "floor": "ground", "tag": "L", "render": "locked", "area": 480}}, {"name": "pool", "translation": [82.0, -0.5, 30.0], "scale": [16, 1, 40], "mesh": 25, "extras": {"building": "Pool & Terrace", "floor": "site", "tag": "~", "render": "provisional", "area": 640}}, {"name": "pool_terrace", "translation": [86.0, 0.2, 34.0], "scale": [48, 0.4, 48], "mesh": 26, "extras": {"building": "Pool & Terrace", "floor": "site", "tag": "~", "render": "container", "area": 2304}}, {"name": "north_alley_pergola", "translation": [20.0, 4.5, -66.0], "scale": [60, 9, 12], "mesh": 28, "extras": {"building": "North Alley Pergola", "floor": "ground", "tag": "~", "render": "provisional", "area": 720}}], "meshes": [{"primitives": [{"attributes": {"POSITION": 0, "NORMAL": 1}, "indices": 2, "material": 0}]}, {"primitives": [{"attributes": {"POSITION": 0, "NORMAL": 1}, "indices": 2, "material": 1}]}, {"primitives": [{"attributes": {"POSITION": 0, "NORMAL": 1}, "indices": 2, "material": 2}]}, {"primitives": [{"attributes": {"POSITION": 0, "NORMAL": 1}, "indices": 2, "material": 3}]}, {"primitives": [{"attributes": {"POSITION": 0, "NORMAL": 1}, "indices": 2, "material": 4}]}, {"primitives": [{"attributes": {"POSITION": 0, "NORMAL": 1}, "indices": 2, "material": 5}]}, {"primitives": [{"attributes": {"POSITION": 0, "NORMAL": 1}, "indices": 2, "material": 6}]}, {"primitives": [{"attributes": {"POSITION": 0, "NORMAL": 1}, "indices": 2, "material": 7}]}, {"primitives": [{"attributes": {"POSITION": 0, "NORMAL": 1}, "indices": 2, "material": 8}]}, {"primitives": [{"attributes": {"POSITION": 0, "NORMAL": 1}, "indices": 2, "material": 9}]}, {"primitives": [{"attributes": {"POSITION": 0, "NORMAL": 1}, "indices": 2, "material": 10}]}, {"primitives": [{"attributes": {"POSITION": 0, "NORMAL": 1}, "indices": 2, "material": 11}]}, {"primitives": [{"attributes": {"POSITION": 0, "NORMAL": 1}, "indices": 2, "material": 12}]}, {"primitives": [{"attributes": {"POSITION": 0, "NORMAL": 1}, "indices": 2, "material": 13}]}, {"primitives": [{"attributes": {"POSITION": 0, "NORMAL": 1}, "indices": 2, "material": 14}]}, {"primitives": [{"attributes": {"POSITION": 0, "NORMAL": 1}, "indices": 2, "material": 15}]}, {"primitives": [{"attributes": {"POSITION": 0, "NORMAL": 1}, "indices": 2, "material": 16}]}, {"primitives": [{"attributes": {"POSITION": 0, "NORMAL": 1}, "indices": 2, "material": 17}]}, {"primitives": [{"attributes": {"POSITION": 0, "NORMAL": 1}, "indices": 2, "material": 18}]}, {"primitives": [{"attributes": {"POSITION": 0, "NORMAL": 1}, "indices": 2, "material": 19}]}, {"primitives": [{"attributes": {"POSITION": 0, "NORMAL": 1}, "indices": 2, "material": 20}]}, {"primitives": [{"attributes": {"POSITION": 0, "NORMAL": 1}, "indices": 2, "material": 21}]}, {"primitives": [{"attributes": {"POSITION": 0, "NORMAL": 1}, "indices": 2, "material": 22}]}, {"primitives": [{"attributes": {"POSITION": 0, "NORMAL": 1}, "indices": 2, "material": 23}]}, {"primitives": [{"attributes": {"POSITION": 0, "NORMAL": 1}, "indices": 2, "material": 24}]}, {"primitives": [{"attributes": {"POSITION": 0, "NORMAL": 1}, "indices": 2, "material": 25}]}, {"primitives": [{"attributes": {"POSITION": 0, "NORMAL": 1}, "indices": 2, "material": 26}]}, {"primitives": [{"attributes": {"POSITION": 0, "NORMAL": 1}, "indices": 2, "material": 27}]}, {"primitives": [{"attributes": {"POSITION": 0, "NORMAL": 1}, "indices": 2, "material": 28}]}, {"primitives": [{"attributes": {"POSITION": 0, "NORMAL": 1}, "indices": 2, "material": 29}]}, {"primitives": [{"attributes": {"POSITION": 0, "NORMAL": 1}, "indices": 2, "material": 30}]}, {"primitives": [{"attributes": {"POSITION": 0, "NORMAL": 1}, "indices": 2, "material": 31}]}, {"primitives": [{"attributes": {"POSITION": 0, "NORMAL": 1}, "indices": 2, "material": 32}]}], "materials": [{"name": "Main Block|locked", "pbrMetallicRoughness": {"baseColorFactor": [0.79, 0.72, 0.61, 1.0], "metallicFactor": 0.0, "roughnessFactor": 0.85}, "doubleSided": true}, {"name": "Main Block|provisional", "pbrMetallicRoughness": {"baseColorFactor": [0.79, 0.72, 0.61, 0.55], "metallicFactor": 0.0, "roughnessFactor": 0.85}, "doubleSided": true, "alphaMode": "BLEND"}, {"name": "Main Block|container", "pbrMetallicRoughness": {"baseColorFactor": [0.79, 0.72, 0.61, 0.16], "metallicFactor": 0.0, "roughnessFactor": 0.85}, "doubleSided": true, "alphaMode": "BLEND"}, {"name": "Service Wing|locked", "pbrMetallicRoughness": {"baseColorFactor": [0.73, 0.66, 0.55, 1.0], "metallicFactor": 0.0, "roughnessFactor": 0.85}, "doubleSided": true}, {"name": "Service Wing|provisional", "pbrMetallicRoughness": {"baseColorFactor": [0.73, 0.66, 0.55, 0.55], "metallicFactor": 0.0, "roughnessFactor": 0.85}, "doubleSided": true, "alphaMode": "BLEND"}, {"name": "Service Wing|container", "pbrMetallicRoughness": {"baseColorFactor": [0.73, 0.66, 0.55, 0.16], "metallicFactor": 0.0, "roughnessFactor": 0.85}, "doubleSided": true, "alphaMode": "BLEND"}, {"name": "Wharf Wing|locked", "pbrMetallicRoughness": {"baseColorFactor": [0.62, 0.71, 0.76, 1.0], "metallicFactor": 0.0, "roughnessFactor": 0.85}, "doubleSided": true}, {"name": "Wharf Wing|provisional", "pbrMetallicRoughness": {"baseColorFactor": [0.62, 0.71, 0.76, 0.55], "metallicFactor": 0.0, "roughnessFactor": 0.85}, "doubleSided": true, "alphaMode": "BLEND"}, {"name": "Wharf Wing|container", "pbrMetallicRoughness": {"baseColorFactor": [0.62, 0.71, 0.76, 0.16], "metallicFactor": 0.0, "roughnessFactor": 0.85}, "doubleSided": true, "alphaMode": "BLEND"}, {"name": "Motor Barn|locked", "pbrMetallicRoughness": {"baseColorFactor": [0.55, 0.48, 0.39, 1.0], "metallicFactor": 0.0, "roughnessFactor": 0.85}, "doubleSided": true}, {"name": "Motor Barn|provisional", "pbrMetallicRoughness": {"baseColorFactor": [0.55, 0.48, 0.39, 0.55], "metallicFactor": 0.0, "roughnessFactor": 0.85}, "doubleSided": true, "alphaMode": "BLEND"}, {"name": "Motor Barn|container", "pbrMetallicRoughness": {"baseColorFactor": [0.55, 0.48, 0.39, 0.16], "metallicFactor": 0.0, "roughnessFactor": 0.85}, "doubleSided": true, "alphaMode": "BLEND"}, {"name": "Observatory|locked", "pbrMetallicRoughness": {"baseColorFactor": [0.37, 0.42, 0.45, 1.0], "metallicFactor": 0.0, "roughnessFactor": 0.85}, "doubleSided": true}, {"name": "Observatory|provisional", "pbrMetallicRoughness": {"baseColorFactor": [0.37, 0.42, 0.45, 0.55], "metallicFactor": 0.0, "roughnessFactor": 0.85}, "doubleSided": true, "alphaMode": "BLEND"}, {"name": "Observatory|container", "pbrMetallicRoughness": {"baseColorFactor": [0.37, 0.42, 0.45, 0.16], "metallicFactor": 0.0, "roughnessFactor": 0.85}, "doubleSided": true, "alphaMode": "BLEND"}, {"name": "Orangery|locked", "pbrMetallicRoughness": {"baseColorFactor": [0.65, 0.76, 0.69, 1.0], "metallicFactor": 0.0, "roughnessFactor": 0.85}, "doubleSided": true}, {"name": "Orangery|provisional", "pbrMetallicRoughness": {"baseColorFactor": [0.65, 0.76, 0.69, 0.55], "metallicFactor": 0.0, "roughnessFactor": 0.85}, "doubleSided": true, "alphaMode": "BLEND"}, {"name": "Orangery|container", "pbrMetallicRoughness": {"baseColorFactor": [0.65, 0.76, 0.69, 0.16], "metallicFactor": 0.0, "roughnessFactor": 0.85}, "doubleSided": true, "alphaMode": "BLEND"}, {"name": "Covered Walkway|locked", "pbrMetallicRoughness": {"baseColorFactor": [0.76, 0.76, 0.74, 1.0], "metallicFactor": 0.0, "roughnessFactor": 0.85}, "doubleSided": true}, {"name": "Covered Walkway|provisional", "pbrMetallicRoughness": {"baseColorFactor": [0.76, 0.76, 0.74, 0.55], "metallicFactor": 0.0, "roughnessFactor": 0.85}, "doubleSided": true, "alphaMode": "BLEND"}, {"name": "Covered Walkway|container", "pbrMetallicRoughness": {"baseColorFactor": [0.76, 0.76, 0.74, 0.16], "metallicFactor": 0.0, "roughnessFactor": 0.85}, "doubleSided": true, "alphaMode": "BLEND"}, {"name": "Cedar Pavilion|locked", "pbrMetallicRoughness": {"baseColorFactor": [0.65, 0.46, 0.29, 1.0], "metallicFactor": 0.0, "roughnessFactor": 0.85}, "doubleSided": true}, {"name": "Cedar Pavilion|provisional", "pbrMetallicRoughness": {"baseColorFactor": [0.65, 0.46, 0.29, 0.55], "metallicFactor": 0.0, "roughnessFactor": 0.85}, "doubleSided": true, "alphaMode": "BLEND"}, {"name": "Cedar Pavilion|container", "pbrMetallicRoughness": {"baseColorFactor": [0.65, 0.46, 0.29, 0.16], "metallicFactor": 0.0, "roughnessFactor": 0.85}, "doubleSided": true, "alphaMode": "BLEND"}, {"name": "Pool & Terrace|locked", "pbrMetallicRoughness": {"baseColorFactor": [0.44, 0.66, 0.78, 1.0], "metallicFactor": 0.0, "roughnessFactor": 0.85}, "doubleSided": true}, {"name": "Pool & Terrace|provisional", "pbrMetallicRoughness": {"baseColorFactor": [0.44, 0.66, 0.78, 0.55], "metallicFactor": 0.0, "roughnessFactor": 0.85}, "doubleSided": true, "alphaMode": "BLEND"}, {"name": "Pool & Terrace|container", "pbrMetallicRoughness": {"baseColorFactor": [0.44, 0.66, 0.78, 0.16], "metallicFactor": 0.0, "roughnessFactor": 0.85}, "doubleSided": true, "alphaMode": "BLEND"}, {"name": "North Alley Pergola|locked", "pbrMetallicRoughness": {"baseColorFactor": [0.61, 0.42, 0.31, 1.0], "metallicFactor": 0.0, "roughnessFactor": 0.85}, "doubleSided": true}, {"name": "North Alley Pergola|provisional", "pbrMetallicRoughness": {"baseColorFactor": [0.61, 0.42, 0.31, 0.55], "metallicFactor": 0.0, "roughnessFactor": 0.85}, "doubleSided": true, "alphaMode": "BLEND"}, {"name": "North Alley Pergola|container", "pbrMetallicRoughness": {"baseColorFactor": [0.61, 0.42, 0.31, 0.16], "metallicFactor": 0.0, "roughnessFactor": 0.85}, "doubleSided": true, "alphaMode": "BLEND"}, {"name": "Other|locked", "pbrMetallicRoughness": {"baseColorFactor": [0.7, 0.7, 0.7, 1.0], "metallicFactor": 0.0, "roughnessFactor": 0.85}, "doubleSided": true}, {"name": "Other|provisional", "pbrMetallicRoughness": {"baseColorFactor": [0.7, 0.7, 0.7, 0.55], "metallicFactor": 0.0, "roughnessFactor": 0.85}, "doubleSided": true, "alphaMode": "BLEND"}, {"name": "Other|container", "pbrMetallicRoughness": {"baseColorFactor": [0.7, 0.7, 0.7, 0.16], "metallicFactor": 0.0, "roughnessFactor": 0.85}, "doubleSided": true, "alphaMode": "BLEND"}], "buffers": [{"uri": "data:application/octet-stream;base64,", "byteLength": 648}], "bufferViews": [{"buffer": 0, "byteOffset": 0, "byteLength": 288, "target": 34962}, {"buffer": 0, "byteOffset": 288, "byteLength": 288, "target": 34962}, {"buffer": 0, "byteOffset": 576, "byteLength": 72, "target": 34963}], "accessors": [{"bufferView": 0, "componentType": 5126, "count": 24, "type": "VEC3", "min": [-0.5, -0.5, -0.5], "max": [0.5, 0.5, 0.5]}, {"bufferView": 1, "componentType": 5126, "count": 24, "type": "VEC3"}, {"bufferView": 2, "componentType": 5123, "count": 36, "type": "SCALAR"}]}